<?xml version="1.0" standalone="no"?>
<!DOCTYPE svg PUBLIC "-//W3C//DTD SVG 20010904//EN"
 "http://www.w3.org/TR/2001/REC-SVG-20010904/DTD/svg10.dtd">
<svg version="1.0" xmlns="http://www.w3.org/2000/svg"
 width="500.000000pt" height="500.000000pt" viewBox="0 0 500.000000 500.000000"
 preserveAspectRatio="xMidYMid meet">
<metadata>
Created by potrace 1.14, written by Peter Selinger 2001-2017
</metadata>
<g transform="translate(0.000000,500.000000) scale(0.100000,-0.100000)"
fill="#000000" stroke="none">
<path d="M1707 4425 c-1 -2 -33 -5 -72 -8 -87 -7 -135 -17 -135 -28 0 -4 47
-88 104 -186 56 -98 182 -315 279 -483 l176 -305 428 1 c318 0 441 -3 477 -12
71 -19 119 -70 196 -209 97 -177 170 -304 243 -427 45 -75 89 -149 98 -165
l15 -28 560 0 559 0 -2 29 c-4 52 -129 288 -259 488 -24 37 -44 69 -44 71 0 3
-32 58 -72 123 -69 116 -83 139 -136 234 -14 25 -72 127 -129 228 -57 101
-103 187 -103 191 0 5 -7 14 -15 21 -9 7 -13 15 -11 18 3 3 -3 17 -14 32 -11
16 -20 33 -20 39 0 6 -4 11 -9 11 -5 0 -11 8 -14 18 -6 17 -37 72 -47 82 -3 3
-18 24 -33 47 -119 174 -239 219 -582 215 -270 -3 -1175 -2 -1303 1 -72 2
-133 3 -135 2z"/>
<path d="M1296 4254 c-40 -52 -126 -191 -188 -304 -77 -141 -160 -291 -230
-413 -43 -76 -78 -142 -78 -147 0 -4 -4 -10 -8 -12 -5 -1 -22 -28 -39 -58 -16
-30 -80 -137 -141 -238 -62 -101 -112 -188 -112 -193 0 -5 -3 -9 -7 -9 -5 0
-13 -10 -19 -23 -6 -12 -33 -65 -59 -117 -54 -107 -71 -161 -74 -240 -4 -117
42 -223 238 -550 128 -212 272 -456 316 -535 84 -150 113 -202 141 -254 123
-228 226 -396 274 -449 l38 -43 147 258 c81 142 158 274 170 293 12 19 61 103
108 185 47 83 94 166 106 185 11 19 24 41 27 48 3 6 -12 43 -34 80 -22 37 -55
94 -72 127 -18 33 -57 101 -86 152 -30 51 -54 96 -54 102 0 5 -3 11 -8 13 -10
4 -148 237 -168 284 -9 21 -18 62 -20 90 -3 60 25 121 172 367 50 84 119 204
154 267 34 63 75 136 91 161 20 31 27 53 22 65 -4 10 -40 74 -80 142 -40 68
-73 125 -73 127 0 2 -40 71 -90 155 -49 84 -90 154 -90 156 0 2 -11 21 -23 42
-13 20 -35 58 -49 83 -54 96 -150 259 -154 259 -2 0 -24 -25 -48 -56z"/>
<path d="M3506 2386 c-83 -135 -222 -376 -302 -521 -119 -217 -173 -279 -250
-291 -27 -4 -240 -8 -473 -8 l-424 -1 -19 -33 c-26 -48 -261 -454 -436 -757
-85 -147 -102 -177 -102 -187 0 -13 133 -28 243 -28 1797 6 1702 3 1812 57 86
42 189 162 275 319 12 22 29 53 39 69 10 17 33 59 51 95 19 36 41 76 51 90 9
14 31 52 48 85 18 33 36 67 41 75 5 8 69 118 142 244 73 126 143 245 155 265
12 20 38 63 58 96 20 33 50 83 67 110 47 77 136 249 152 294 12 36 12 41 -3
45 -9 3 -263 4 -564 4 l-548 0 -13 -22z"/>
</g>
</svg>
